<?xml version="1.0" encoding="UTF-8"?>
<svg version="1.1" xmlns="http://www.w3.org/2000/svg" width="600" height="600">
<path d="M0 0 C0.96301082 -0.00367669 1.92602165 -0.00735338 2.91821462 -0.01114148 C6.1660475 -0.02221108 9.41384843 -0.02602781 12.66169739 -0.02983093 C14.98245343 -0.03609346 17.30320847 -0.04274007 19.6239624 -0.04974365 C25.94696004 -0.06718103 32.26995009 -0.07771437 38.59296584 -0.08594918 C42.54531915 -0.09109697 46.4976701 -0.09717302 50.45002174 -0.10346031 C61.40206071 -0.12033945 72.35409759 -0.13497059 83.30614758 -0.14220905 C86.14959909 -0.14411886 88.99305059 -0.14603919 91.83650208 -0.147995 C92.54320273 -0.14847874 93.24990339 -0.14896248 93.97801922 -0.14946087 C105.40062777 -0.15774335 116.82313099 -0.18304613 128.24569365 -0.21557567 C139.98553032 -0.24873442 151.72531367 -0.26666612 163.46519738 -0.26985329 C170.05139429 -0.27219943 176.63742507 -0.28110221 183.2235775 -0.30631447 C189.42961738 -0.32968538 195.63538289 -0.33379208 201.84145546 -0.32355309 C204.11048421 -0.32305969 206.37952688 -0.3293216 208.64851379 -0.34310913 C229.39282171 -0.46203067 247.99794091 1.84507794 263.65315247 16.95185852 C264.36987122 17.67631165 265.08658997 18.40076477 265.82502747 19.14717102 C266.37674622 19.66537415 266.92846497 20.18357727 267.49690247 20.71748352 C279.82970785 33.38181593 283.35796522 51.83561148 283.24299622 68.77485657 C282.74352892 87.06316359 277.0473536 103.62595185 264.20393372 116.98310852 C254.13008162 126.14717102 254.13008162 126.14717102 249.82502747 126.14717102 C253.26594216 129.91369657 257.18081713 132.57606103 261.38752747 135.39717102 C262.81746057 136.37728154 264.24714679 137.35775235 265.67658997 138.33857727 C268.18998365 140.0524647 270.71994494 141.72819943 273.28596497 143.36201477 C280.29189397 148.00505171 280.29189397 148.00505171 281.78596497 151.20576477 C282.5101633 155.46244164 281.61490491 159.2848039 279.82502747 163.14717102 C276.58685953 164.76625499 273.02765881 164.357825 269.46662903 164.40351868 C268.60125015 164.41812134 267.73587128 164.432724 266.8442688 164.44776917 C258.82722891 164.57421433 250.80918491 164.6426493 242.79135513 164.69561195 C237.41039681 164.73126199 232.03094727 164.78428094 226.65071106 164.88105774 C221.44162525 164.97446721 216.23387043 165.02262905 211.02399445 165.04000473 C209.04813724 165.05400582 207.07232091 165.08343141 205.09694672 165.12930679 C191.47425399 165.42997635 183.56144816 163.78573553 172.82502747 155.14717102 C170.78435925 153.69985166 168.7125669 152.30719327 166.63752747 150.90888977 C164.69819804 149.55343055 162.76067323 148.19538546 160.82502747 146.83467102 C158.86705413 145.46306323 156.90873148 144.09195392 154.95002747 142.72138977 C154.10698059 142.12930725 153.26393372 141.53722473 152.39533997 140.92720032 C151.12303528 140.04608582 151.12303528 140.04608582 149.82502747 139.14717102 C148.50025894 138.1189901 148.50025894 138.1189901 147.14872742 137.07003784 C143.31919025 134.854528 140.37416558 134.57031226 136.07551575 134.60127258 C134.94766411 134.58576607 134.94766411 134.58576607 133.79702759 134.56994629 C131.32957719 134.54061817 128.86295063 134.5390213 126.39533997 134.53779602 C124.67754054 134.52280755 122.95975549 134.506079 121.24198914 134.48768616 C116.73424095 134.44407505 112.22668715 134.42402747 107.71876526 134.40895081 C103.11344438 134.38935715 98.50833272 134.34738969 93.90315247 134.30732727 C84.87717544 134.23209284 75.85124539 134.18176045 66.82502747 134.14717102 C66.85644836 135.2971759 66.85644836 135.2971759 66.88850403 136.47041321 C66.97167905 139.94586562 67.02369321 143.42110865 67.07502747 146.89717102 C67.10854309 148.10373352 67.14205872 149.31029602 67.17658997 150.55342102 C67.1959259 152.2936554 67.1959259 152.2936554 67.21565247 154.06904602 C67.23659973 155.13735657 67.257547 156.20566711 67.27912903 157.30635071 C66.82502747 160.14717102 66.82502747 160.14717102 65.2323761 162.49569702 C61.98986906 164.72010108 59.83569565 164.648355 55.91682434 164.64888 C54.88683067 164.65698448 54.88683067 164.65698448 53.83602905 164.66525269 C51.57150356 164.67773638 49.30825046 164.66125316 47.04377747 164.64326477 C45.4672387 164.64341977 43.89069955 164.64490889 42.31416321 164.64767456 C39.0121117 164.64905838 35.71049464 164.63650388 32.40852356 164.61372375 C28.17814483 164.58533878 23.94848787 164.58807647 19.71805573 164.60081387 C16.4632095 164.60777239 13.2085298 164.59997985 9.95370483 164.58755684 C8.39400878 164.583044 6.83429483 164.58270409 5.27459717 164.58662224 C3.09376958 164.58953627 0.91393288 164.57302006 -1.26676941 164.55122375 C-2.50712952 164.54582077 -3.74748962 164.54041779 -5.0254364 164.53485107 C-8.47545269 164.11018457 -9.88131641 163.7488671 -12.17497253 161.14717102 C-13.07537996 157.01822609 -13.30213064 153.06401715 -13.3086853 148.84736633 C-13.31295029 147.60249451 -13.31721527 146.35762268 -13.3216095 145.07502747 C-13.32126004 143.70845029 -13.32079854 142.34187313 -13.32023621 140.97529602 C-13.32323064 139.5260357 -13.32663383 138.07677618 -13.33041382 136.6275177 C-13.33922706 132.70197121 -13.34159075 128.77644654 -13.3422296 124.85089111 C-13.34294139 122.39679234 -13.34507811 119.94269908 -13.34772682 117.48860168 C-13.35696995 108.92296497 -13.36106282 100.3573438 -13.36027527 91.79170227 C-13.35967409 83.8130173 -13.37023632 75.83439985 -13.38601893 67.85573196 C-13.39909859 60.99867053 -13.40445902 54.14163116 -13.40381986 47.28455734 C-13.40356508 43.19206617 -13.40640523 39.09963509 -13.41699791 35.00715637 C-13.42668656 31.1592233 -13.42675284 27.3114077 -13.41948128 23.46347046 C-13.41843653 22.05338367 -13.4207918 20.64328953 -13.42684174 19.23321533 C-13.43457958 17.30448369 -13.4287094 15.37571192 -13.42221069 13.44697571 C-13.42275546 12.36889648 -13.42330023 11.29081726 -13.4238615 10.18006897 C-13.15233542 6.87132091 -12.44809089 4.20936511 -11.17497253 1.14717102 C-7.73830245 -0.57116402 -3.78243567 -0.00076632 0 0 Z M66.82502747 66.14717102 C66.82502747 66.80717102 66.82502747 67.46717102 66.82502747 68.14717102 C110.71502747 68.14717102 154.60502747 68.14717102 199.82502747 68.14717102 C199.82502747 67.48717102 199.82502747 66.82717102 199.82502747 66.14717102 C155.93502747 66.14717102 112.04502747 66.14717102 66.82502747 66.14717102 Z " fill="#DAD8D8" transform="translate(315.1749725341797,230.8528289794922)"/>
<path d="M0 0 C1.01231672 -0.00507454 2.02463344 -0.01014909 3.06762642 -0.0153774 C4.18812938 -0.01587516 5.30863234 -0.01637292 6.46308994 -0.01688576 C8.23882345 -0.02345914 8.23882345 -0.02345914 10.05043036 -0.03016531 C13.34658814 -0.04124679 16.64269835 -0.04778294 19.93886793 -0.05234647 C23.48971704 -0.05829626 27.04054857 -0.06990745 30.59138584 -0.08063698 C39.17053509 -0.10517212 47.74969017 -0.11978813 56.32886371 -0.13269705 C58.75049548 -0.13640764 61.17212667 -0.14038096 63.59375787 -0.14444971 C78.62116186 -0.16968076 93.64856674 -0.19174096 108.67598724 -0.20417786 C112.15755752 -0.2071077 115.63912777 -0.21006935 119.12069798 -0.21308327 C119.98605832 -0.21382932 120.85141867 -0.21457537 121.74300206 -0.21534403 C135.77327249 -0.22800802 149.80341649 -0.26124474 163.83362775 -0.3028851 C178.22667437 -0.34525353 192.61965615 -0.36886683 207.01276499 -0.37409842 C215.09871949 -0.37751794 223.18447626 -0.38933668 231.27036953 -0.42220116 C238.15397784 -0.4501328 245.03734792 -0.46123143 251.92100852 -0.4500057 C255.4354219 -0.44480153 258.94933585 -0.44781807 262.46367741 -0.47247124 C266.26813082 -0.49893781 270.07189479 -0.48696339 273.87642002 -0.47098732 C274.99469226 -0.48486941 276.1129645 -0.49875149 277.26512378 -0.51305425 C280.01479872 -0.48441232 282.54272579 -0.42878704 285.2332468 0.13701439 C288.24126982 3.40750303 288.60856941 6.11440958 288.60556126 10.47466087 C288.61179005 11.51601692 288.61801884 12.55737297 288.62443638 13.63028526 C288.61062176 15.30230759 288.61062176 15.30230759 288.59652805 17.00810814 C288.59702656 18.16319374 288.59752506 19.31827934 288.59803867 20.50836754 C288.59570064 22.94848414 288.58598813 25.38860325 288.56942844 27.82866478 C288.54585551 31.5573193 288.54886764 35.28525749 288.55551243 39.01396751 C288.54993472 41.38701864 288.54282425 43.76006676 288.53402805 46.13310814 C288.53493946 47.24576546 288.53585087 48.35842278 288.53678989 49.50479698 C288.44425821 59.6443242 288.44425821 59.6443242 286.2332468 64.13701439 C283.12556062 66.20880518 282.4790591 66.38609067 278.96220493 66.37752342 C278.09142307 66.38027275 277.22064121 66.38302208 276.32347202 66.38585472 C274.89496166 66.37506889 274.89496166 66.37506889 273.43759251 66.36406517 C271.93000874 66.36450325 271.93000874 66.36450325 270.39196873 66.36495018 C267.06423453 66.36355494 263.73672322 66.34798444 260.40902805 66.33232689 C258.10403154 66.32859745 255.79903344 66.32575015 253.49403477 66.32375145 C247.42276742 66.31610953 241.35159553 66.29645619 235.28036594 66.27434349 C229.08693833 66.25389712 222.89349531 66.24475232 216.70004368 66.23467064 C204.54440274 66.21321088 192.38883271 66.17906815 180.2332468 66.13701439 C180.23546741 67.22394081 180.23768803 68.31086723 180.23997593 69.43073082 C180.26026824 79.68570169 180.27524829 89.94066846 180.28505898 100.19565487 C180.29027232 105.4675391 180.29734186 110.73940708 180.30868626 116.01128197 C180.31957015 121.10114196 180.32553531 126.19098635 180.32812405 131.28085709 C180.32996838 133.22046148 180.33356988 135.16006505 180.33897686 137.09966278 C180.3462603 139.82119768 180.34723466 142.54266854 180.34677219 145.26421165 C180.35036747 146.06190971 180.35396275 146.85960777 180.35766697 147.6814785 C180.33537533 159.84462864 180.33537533 159.84462864 177.6025095 163.04926109 C174.39993908 164.51959468 171.84909642 164.52571642 168.32504368 164.54106712 C167.63838123 164.54793037 166.95171879 164.55479362 166.24424839 164.56186485 C163.97995277 164.58013027 161.71635011 164.57629647 159.4519968 164.57060814 C157.87545643 164.57516972 156.29891804 164.58047522 154.72238255 164.58649254 C151.42042041 164.59542281 148.11870015 164.59300116 144.8167429 164.58305931 C140.58627249 164.57156264 136.35663592 164.59179141 132.12627506 164.62097645 C128.87143755 164.63932499 125.61680042 164.63904886 122.36192417 164.63333893 C120.80220971 164.63318558 119.24248177 164.63924083 117.68281651 164.6516304 C115.50182894 164.66651627 113.32238917 164.65588403 111.14144993 164.63872337 C109.90108982 164.63855721 108.66072971 164.63839104 107.38278294 164.63821983 C104.2332468 164.13701439 104.2332468 164.13701439 101.82986546 162.67334557 C99.43335724 158.8663385 99.70574076 155.4670653 99.77914524 151.05400658 C99.77856113 150.13658684 99.77797703 149.2191671 99.77737522 148.27394676 C99.78016049 145.24354187 99.81127372 142.21412231 99.8426218 139.18388939 C99.85008261 137.08210856 99.8557763 134.98032077 99.85977268 132.8785305 C99.87504156 127.34800049 99.91433453 121.817891 99.9585886 116.28752708 C99.99951405 110.64366406 100.01777789 104.99973305 100.0379343 99.35576439 C100.08082728 88.28266301 100.14909406 77.20987368 100.2332468 66.13701439 C98.28885967 66.14367622 98.28885967 66.14367622 96.30519199 66.15047264 C84.10645236 66.19096509 71.90772631 66.22097298 59.70893478 66.24063873 C53.43698107 66.25108885 47.16508147 66.26527047 40.89315891 66.2878933 C34.84370292 66.30957784 28.79429909 66.32157376 22.74480724 66.32676888 C20.43346746 66.33047253 18.12213061 66.33770454 15.81081295 66.3484745 C12.5807112 66.36293102 9.35082672 66.36499477 6.12069798 66.36406517 C5.159007 66.37125572 4.19731602 66.37844627 3.20648289 66.38585472 C1.88768887 66.38173073 1.88768887 66.38173073 0.54225254 66.37752342 C-0.60399704 66.3802888 -0.60399704 66.3802888 -1.77340317 66.38311005 C-3.7667532 66.13701439 -3.7667532 66.13701439 -6.7667532 64.13701439 C-7.80347254 61.02685637 -7.89354511 58.87273211 -7.89614773 55.61162376 C-7.89929989 54.48035057 -7.90245205 53.34907738 -7.90569973 52.18352318 C-7.9036755 50.96161278 -7.90165127 49.73970238 -7.8995657 48.48076439 C-7.90052242 47.22694969 -7.90147915 45.97313499 -7.90246487 44.68132591 C-7.90314588 42.02833681 -7.90179778 39.3754396 -7.89712429 36.72246361 C-7.89142718 33.32281627 -7.89470793 29.92324788 -7.90069675 26.52360344 C-7.90518013 23.28015426 -7.90204062 20.0367146 -7.8995657 16.79326439 C-7.90158993 15.57135399 -7.90361416 14.34944359 -7.90569973 13.0905056 C-7.90254757 11.95923241 -7.89939541 10.82795921 -7.89614773 9.66240501 C-7.89535213 8.66551659 -7.89455654 7.66862816 -7.89373684 6.64153099 C-7.7667532 4.13701439 -7.7667532 4.13701439 -6.7667532 1.13701439 C-4.31947501 -0.08662471 -2.73688048 0.00726035 0 0 Z " fill="#DAD8D8" transform="translate(9.766753196716309,230.8629856109619)"/>
<path d="M0 0 C0.96301082 -0.00367669 1.92602165 -0.00735338 2.91821462 -0.01114148 C6.1660475 -0.02221108 9.41384843 -0.02602781 12.66169739 -0.02983093 C14.98245343 -0.03609346 17.30320847 -0.04274007 19.6239624 -0.04974365 C25.94696004 -0.06718103 32.26995009 -0.07771437 38.59296584 -0.08594918 C42.54531915 -0.09109697 46.4976701 -0.09717302 50.45002174 -0.10346031 C61.40206071 -0.12033945 72.35409759 -0.13497059 83.30614758 -0.14220905 C86.14959909 -0.14411886 88.99305059 -0.14603919 91.83650208 -0.147995 C92.54320273 -0.14847874 93.24990339 -0.14896248 93.97801922 -0.14946087 C105.40062777 -0.15774335 116.82313099 -0.18304613 128.24569365 -0.21557567 C139.98553032 -0.24873442 151.72531367 -0.26666612 163.46519738 -0.26985329 C170.05139429 -0.27219943 176.63742507 -0.28110221 183.2235775 -0.30631447 C189.42961738 -0.32968538 195.63538289 -0.33379208 201.84145546 -0.32355309 C204.11048421 -0.32305969 206.37952688 -0.3293216 208.64851379 -0.34310913 C229.39282171 -0.46203067 247.99794091 1.84507794 263.65315247 16.95185852 C264.36987122 17.67631165 265.08658997 18.40076477 265.82502747 19.14717102 C266.37674622 19.66537415 266.92846497 20.18357727 267.49690247 20.71748352 C279.82970785 33.38181593 283.35796522 51.83561148 283.24299622 68.77485657 C282.74352892 87.06316359 277.0473536 103.62595185 264.20393372 116.98310852 C254.13008162 126.14717102 254.13008162 126.14717102 249.82502747 126.14717102 C253.26594216 129.91369657 257.18081713 132.57606103 261.38752747 135.39717102 C262.81746057 136.37728154 264.24714679 137.35775235 265.67658997 138.33857727 C268.18998365 140.0524647 270.71994494 141.72819943 273.28596497 143.36201477 C280.29189397 148.00505171 280.29189397 148.00505171 281.78596497 151.20576477 C282.5101633 155.46244164 281.61490491 159.2848039 279.82502747 163.14717102 C276.58685953 164.76625499 273.02765881 164.357825 269.46662903 164.40351868 C268.60125015 164.41812134 267.73587128 164.432724 266.8442688 164.44776917 C258.82722891 164.57421433 250.80918491 164.6426493 242.79135513 164.69561195 C237.41039681 164.73126199 232.03094727 164.78428094 226.65071106 164.88105774 C221.44162525 164.97446721 216.23387043 165.02262905 211.02399445 165.04000473 C209.04813724 165.05400582 207.07232091 165.08343141 205.09694672 165.12930679 C191.47425399 165.42997635 183.56144816 163.78573553 172.82502747 155.14717102 C170.78435925 153.69985166 168.7125669 152.30719327 166.63752747 150.90888977 C164.69819804 149.55343055 162.76067323 148.19538546 160.82502747 146.83467102 C158.86705413 145.46306323 156.90873148 144.09195392 154.95002747 142.72138977 C154.10698059 142.12930725 153.26393372 141.53722473 152.39533997 140.92720032 C151.12303528 140.04608582 151.12303528 140.04608582 149.82502747 139.14717102 C148.50025894 138.1189901 148.50025894 138.1189901 147.14872742 137.07003784 C143.31919025 134.854528 140.37416558 134.57031226 136.07551575 134.60127258 C134.94766411 134.58576607 134.94766411 134.58576607 133.79702759 134.56994629 C131.32957719 134.54061817 128.86295063 134.5390213 126.39533997 134.53779602 C124.67754054 134.52280755 122.95975549 134.506079 121.24198914 134.48768616 C116.73424095 134.44407505 112.22668715 134.42402747 107.71876526 134.40895081 C103.11344438 134.38935715 98.50833272 134.34738969 93.90315247 134.30732727 C84.87717544 134.23209284 75.85124539 134.18176045 66.82502747 134.14717102 C66.85644836 135.2971759 66.85644836 135.2971759 66.88850403 136.47041321 C66.97167905 139.94586562 67.02369321 143.42110865 67.07502747 146.89717102 C67.10854309 148.10373352 67.14205872 149.31029602 67.17658997 150.55342102 C67.1959259 152.2936554 67.1959259 152.2936554 67.21565247 154.06904602 C67.23659973 155.13735657 67.257547 156.20566711 67.27912903 157.30635071 C66.82502747 160.14717102 66.82502747 160.14717102 65.2323761 162.49569702 C61.98986906 164.72010108 59.83569565 164.648355 55.91682434 164.64888 C54.88683067 164.65698448 54.88683067 164.65698448 53.83602905 164.66525269 C51.57150356 164.67773638 49.30825046 164.66125316 47.04377747 164.64326477 C45.4672387 164.64341977 43.89069955 164.64490889 42.31416321 164.64767456 C39.0121117 164.64905838 35.71049464 164.63650388 32.40852356 164.61372375 C28.17814483 164.58533878 23.94848787 164.58807647 19.71805573 164.60081387 C16.4632095 164.60777239 13.2085298 164.59997985 9.95370483 164.58755684 C8.39400878 164.583044 6.83429483 164.58270409 5.27459717 164.58662224 C3.09376958 164.58953627 0.91393288 164.57302006 -1.26676941 164.55122375 C-2.50712952 164.54582077 -3.74748962 164.54041779 -5.0254364 164.53485107 C-8.47545269 164.11018457 -9.88131641 163.7488671 -12.17497253 161.14717102 C-13.07537996 157.01822609 -13.30213064 153.06401715 -13.3086853 148.84736633 C-13.31295029 147.60249451 -13.31721527 146.35762268 -13.3216095 145.07502747 C-13.32126004 143.70845029 -13.32079854 142.34187313 -13.32023621 140.97529602 C-13.32323064 139.5260357 -13.32663383 138.07677618 -13.33041382 136.6275177 C-13.33922706 132.70197121 -13.34159075 128.77644654 -13.3422296 124.85089111 C-13.34294139 122.39679234 -13.34507811 119.94269908 -13.34772682 117.48860168 C-13.35696995 108.92296497 -13.36106282 100.3573438 -13.36027527 91.79170227 C-13.35967409 83.8130173 -13.37023632 75.83439985 -13.38601893 67.85573196 C-13.39909859 60.99867053 -13.40445902 54.14163116 -13.40381986 47.28455734 C-13.40356508 43.19206617 -13.40640523 39.09963509 -13.41699791 35.00715637 C-13.42668656 31.1592233 -13.42675284 27.3114077 -13.41948128 23.46347046 C-13.41843653 22.05338367 -13.4207918 20.64328953 -13.42684174 19.23321533 C-13.43457958 17.30448369 -13.4287094 15.37571192 -13.42221069 13.44697571 C-13.42275546 12.36889648 -13.42330023 11.29081726 -13.4238615 10.18006897 C-13.15233542 6.87132091 -12.44809089 4.20936511 -11.17497253 1.14717102 C-7.73830245 -0.57116402 -3.78243567 -0.00076632 0 0 Z M-7.17497253 6.14717102 C-7.17497253 55.31717102 -7.17497253 104.48717102 -7.17497253 155.14717102 C15.26502747 155.14717102 37.70502747 155.14717102 60.82502747 155.14717102 C60.82502747 145.24717102 60.82502747 135.34717102 60.82502747 125.14717102 C71.69335256 124.96017252 82.55787057 124.83496617 93.42780685 124.81295204 C98.47752978 124.8003717 103.52424607 124.7626863 108.57307434 124.66377258 C149.92549974 123.88920867 149.92549974 123.88920867 164.73036194 138.088974 C165.42160156 138.76817902 166.11284119 139.44738403 166.82502747 140.14717102 C182.87692662 155.65054934 197.34693194 156.88005374 218.73065567 156.53254128 C222.7099927 156.4422631 226.68747988 156.31142703 230.6655426 156.17713928 C235.76722992 156.02167825 240.87007514 155.95476584 245.97346497 155.8795929 C255.92697618 155.7203249 265.87541865 155.46550422 275.82502747 155.14717102 C272.92290758 152.20899196 270.17504153 149.50589473 266.74299622 147.20185852 C265.6031427 146.42987122 265.6031427 146.42987122 264.44026184 145.64228821 C263.6391095 145.10764954 262.83795715 144.57301086 262.01252747 144.02217102 C260.31827232 142.87930457 258.62426637 141.73606862 256.93049622 140.59248352 C256.08019836 140.02046204 255.22990051 139.44844055 254.35383606 138.85908508 C251.93209982 137.21965522 249.52598478 135.56015426 247.12580872 133.88935852 C246.3991803 133.38420715 245.67255188 132.87905579 244.92390442 132.3585968 C243.55231983 131.40357699 242.18229406 130.44631347 240.81404114 129.48652649 C238.16444505 127.64933439 235.90189912 126.17279491 232.82502747 125.14717102 C232.82502747 124.48717102 232.82502747 123.82717102 232.82502747 123.14717102 C233.75315247 123.10592102 234.68127747 123.06467102 235.63752747 123.02217102 C245.77736213 121.50937311 253.83455956 114.11293763 260.82502747 107.14717102 C261.38963684 106.60576477 261.95424622 106.06435852 262.53596497 105.50654602 C273.26558283 94.26599397 277.34036034 78.43000756 277.24714661 63.34565735 C276.73818536 46.47651219 269.61784657 32.96082549 257.82502747 21.14717102 C257.26041809 20.57096008 256.69580872 19.99474915 256.11408997 19.40107727 C245.79032692 9.70681197 231.44031607 5.6491434 217.58071899 5.78640747 C216.12716878 5.78256256 216.12716878 5.78256256 214.64425391 5.77863997 C211.4306552 5.7737392 208.21753721 5.79013348 205.00398254 5.80659485 C202.68711864 5.80744192 200.37025394 5.80696441 198.0533905 5.80526733 C191.7876416 5.8044091 185.52206615 5.82200722 179.25635743 5.84298921 C172.69939705 5.86178455 166.14243238 5.8635087 159.58544922 5.86706543 C148.58772284 5.87482093 137.59005698 5.89403976 126.59236145 5.92085266 C115.26944793 5.9484296 103.94655175 5.9696109 92.62361145 5.9823761 C91.91744621 5.98318009 91.21128097 5.98398408 90.48371679 5.98481244 C84.34018445 5.99175186 78.19665162 5.99820984 72.05311871 6.00462055 C45.64369536 6.03280159 19.23444001 6.09257687 -7.17497253 6.14717102 Z " fill="#010101" transform="translate(315.1749725341797,230.8528289794922)"/>
<path d="M0 0 C1.01231672 -0.00507454 2.02463344 -0.01014909 3.06762642 -0.0153774 C4.18812938 -0.01587516 5.30863234 -0.01637292 6.46308994 -0.01688576 C8.23882345 -0.02345914 8.23882345 -0.02345914 10.05043036 -0.03016531 C13.34658814 -0.04124679 16.64269835 -0.04778294 19.93886793 -0.05234647 C23.48971704 -0.05829626 27.04054857 -0.06990745 30.59138584 -0.08063698 C39.17053509 -0.10517212 47.74969017 -0.11978813 56.32886371 -0.13269705 C58.75049548 -0.13640764 61.17212667 -0.14038096 63.59375787 -0.14444971 C78.62116186 -0.16968076 93.64856674 -0.19174096 108.67598724 -0.20417786 C112.15755752 -0.2071077 115.63912777 -0.21006935 119.12069798 -0.21308327 C119.98605832 -0.21382932 120.85141867 -0.21457537 121.74300206 -0.21534403 C135.77327249 -0.22800802 149.80341649 -0.26124474 163.83362775 -0.3028851 C178.22667437 -0.34525353 192.61965615 -0.36886683 207.01276499 -0.37409842 C215.09871949 -0.37751794 223.18447626 -0.38933668 231.27036953 -0.42220116 C238.15397784 -0.4501328 245.03734792 -0.46123143 251.92100852 -0.4500057 C255.4354219 -0.44480153 258.94933585 -0.44781807 262.46367741 -0.47247124 C266.26813082 -0.49893781 270.07189479 -0.48696339 273.87642002 -0.47098732 C274.99469226 -0.48486941 276.1129645 -0.49875149 277.26512378 -0.51305425 C280.01479872 -0.48441232 282.54272579 -0.42878704 285.2332468 0.13701439 C288.24126982 3.40750303 288.60856941 6.11440958 288.60556126 10.47466087 C288.61179005 11.51601692 288.61801884 12.55737297 288.62443638 13.63028526 C288.61062176 15.30230759 288.61062176 15.30230759 288.59652805 17.00810814 C288.59702656 18.16319374 288.59752506 19.31827934 288.59803867 20.50836754 C288.59570064 22.94848414 288.58598813 25.38860325 288.56942844 27.82866478 C288.54585551 31.5573193 288.54886764 35.28525749 288.55551243 39.01396751 C288.54993472 41.38701864 288.54282425 43.76006676 288.53402805 46.13310814 C288.53493946 47.24576546 288.53585087 48.35842278 288.53678989 49.50479698 C288.44425821 59.6443242 288.44425821 59.6443242 286.2332468 64.13701439 C283.12556062 66.20880518 282.4790591 66.38609067 278.96220493 66.37752342 C278.09142307 66.38027275 277.22064121 66.38302208 276.32347202 66.38585472 C274.89496166 66.37506889 274.89496166 66.37506889 273.43759251 66.36406517 C271.93000874 66.36450325 271.93000874 66.36450325 270.39196873 66.36495018 C267.06423453 66.36355494 263.73672322 66.34798444 260.40902805 66.33232689 C258.10403154 66.32859745 255.79903344 66.32575015 253.49403477 66.32375145 C247.42276742 66.31610953 241.35159553 66.29645619 235.28036594 66.27434349 C229.08693833 66.25389712 222.89349531 66.24475232 216.70004368 66.23467064 C204.54440274 66.21321088 192.38883271 66.17906815 180.2332468 66.13701439 C180.23546741 67.22394081 180.23768803 68.31086723 180.23997593 69.43073082 C180.26026824 79.68570169 180.27524829 89.94066846 180.28505898 100.19565487 C180.29027232 105.4675391 180.29734186 110.73940708 180.30868626 116.01128197 C180.31957015 121.10114196 180.32553531 126.19098635 180.32812405 131.28085709 C180.32996838 133.22046148 180.33356988 135.16006505 180.33897686 137.09966278 C180.3462603 139.82119768 180.34723466 142.54266854 180.34677219 145.26421165 C180.35036747 146.06190971 180.35396275 146.85960777 180.35766697 147.6814785 C180.33537533 159.84462864 180.33537533 159.84462864 177.6025095 163.04926109 C174.39993908 164.51959468 171.84909642 164.52571642 168.32504368 164.54106712 C167.63838123 164.54793037 166.95171879 164.55479362 166.24424839 164.56186485 C163.97995277 164.58013027 161.71635011 164.57629647 159.4519968 164.57060814 C157.87545643 164.57516972 156.29891804 164.58047522 154.72238255 164.58649254 C151.42042041 164.59542281 148.11870015 164.59300116 144.8167429 164.58305931 C140.58627249 164.57156264 136.35663592 164.59179141 132.12627506 164.62097645 C128.87143755 164.63932499 125.61680042 164.63904886 122.36192417 164.63333893 C120.80220971 164.63318558 119.24248177 164.63924083 117.68281651 164.6516304 C115.50182894 164.66651627 113.32238917 164.65588403 111.14144993 164.63872337 C109.90108982 164.63855721 108.66072971 164.63839104 107.38278294 164.63821983 C104.2332468 164.13701439 104.2332468 164.13701439 101.82986546 162.67334557 C99.43335724 158.8663385 99.70574076 155.4670653 99.77914524 151.05400658 C99.77856113 150.13658684 99.77797703 149.2191671 99.77737522 148.27394676 C99.78016049 145.24354187 99.81127372 142.21412231 99.8426218 139.18388939 C99.85008261 137.08210856 99.8557763 134.98032077 99.85977268 132.8785305 C99.87504156 127.34800049 99.91433453 121.817891 99.9585886 116.28752708 C99.99951405 110.64366406 100.01777789 104.99973305 100.0379343 99.35576439 C100.08082728 88.28266301 100.14909406 77.20987368 100.2332468 66.13701439 C98.28885967 66.14367622 98.28885967 66.14367622 96.30519199 66.15047264 C84.10645236 66.19096509 71.90772631 66.22097298 59.70893478 66.24063873 C53.43698107 66.25108885 47.16508147 66.26527047 40.89315891 66.2878933 C34.84370292 66.30957784 28.79429909 66.32157376 22.74480724 66.32676888 C20.43346746 66.33047253 18.12213061 66.33770454 15.81081295 66.3484745 C12.5807112 66.36293102 9.35082672 66.36499477 6.12069798 66.36406517 C5.159007 66.37125572 4.19731602 66.37844627 3.20648289 66.38585472 C1.88768887 66.38173073 1.88768887 66.38173073 0.54225254 66.37752342 C-0.60399704 66.3802888 -0.60399704 66.3802888 -1.77340317 66.38311005 C-3.7667532 66.13701439 -3.7667532 66.13701439 -6.7667532 64.13701439 C-7.80347254 61.02685637 -7.89354511 58.87273211 -7.89614773 55.61162376 C-7.89929989 54.48035057 -7.90245205 53.34907738 -7.90569973 52.18352318 C-7.9036755 50.96161278 -7.90165127 49.73970238 -7.8995657 48.48076439 C-7.90052242 47.22694969 -7.90147915 45.97313499 -7.90246487 44.68132591 C-7.90314588 42.02833681 -7.90179778 39.3754396 -7.89712429 36.72246361 C-7.89142718 33.32281627 -7.89470793 29.92324788 -7.90069675 26.52360344 C-7.90518013 23.28015426 -7.90204062 20.0367146 -7.8995657 16.79326439 C-7.90158993 15.57135399 -7.90361416 14.34944359 -7.90569973 13.0905056 C-7.90254757 11.95923241 -7.89939541 10.82795921 -7.89614773 9.66240501 C-7.89535213 8.66551659 -7.89455654 7.66862816 -7.89373684 6.64153099 C-7.7667532 4.13701439 -7.7667532 4.13701439 -6.7667532 1.13701439 C-4.31947501 -0.08662471 -2.73688048 0.00726035 0 0 Z M-1.7667532 6.13701439 C-1.7667532 22.96701439 -1.7667532 39.79701439 -1.7667532 57.13701439 C33.8732468 57.13701439 69.5132468 57.13701439 106.2332468 57.13701439 C106.2332468 89.47701439 106.2332468 121.81701439 106.2332468 155.13701439 C128.3432468 155.13701439 150.4532468 155.13701439 173.2332468 155.13701439 C173.2332468 122.79701439 173.2332468 90.45701439 173.2332468 57.13701439 C209.2032468 57.13701439 245.1732468 57.13701439 282.2332468 57.13701439 C282.2332468 40.30701439 282.2332468 23.47701439 282.2332468 6.13701439 C188.5132468 6.13701439 94.7932468 6.13701439 -1.7667532 6.13701439 Z " fill="#030303" transform="translate(9.766753196716309,230.8629856109619)"/>
<path d="M0 0 C18.42812808 -0.06944186 36.85621128 -0.12298125 55.28444195 -0.15543652 C63.84095908 -0.17090649 72.39739342 -0.19199848 80.95385742 -0.22631836 C88.41153147 -0.25621675 95.86914557 -0.27557406 103.32687789 -0.28226548 C107.27583698 -0.28617701 111.22462455 -0.29537225 115.17352867 -0.31719017 C118.89090184 -0.33756234 122.60803293 -0.34383237 126.32545662 -0.33932304 C128.33913383 -0.34054104 130.35278473 -0.35667936 132.36639404 -0.3732605 C133.56807724 -0.36913651 134.76976044 -0.36501251 136.00785828 -0.36076355 C137.57168007 -0.36491162 137.57168007 -0.36491162 139.16709423 -0.36914349 C142.45575306 0.05938718 144.33903325 1.0511474 147 3 C148.54586876 6.09173752 148.29359521 8.59429552 148 12 C145.78136971 14.90717073 144.48055071 15.83981643 141 17 C139.09719962 17.09106103 137.19130848 17.12194783 135.28633118 17.12025452 C134.09581146 17.12162918 132.90529175 17.12300385 131.67869568 17.12442017 C130.37102737 17.12082489 129.06335907 17.11722961 127.71606445 17.11352539 C126.32647707 17.11324335 124.93688954 17.11340159 123.54730225 17.1139679 C119.77279387 17.1142552 115.99831716 17.10836926 112.22381616 17.10139394 C108.28000565 17.09514928 104.33619445 17.09455572 100.39237976 17.09336853 C92.92324515 17.0902585 85.45412515 17.08204953 77.98499697 17.07201904 C69.48206822 17.06084772 60.97913878 17.05534488 52.47620451 17.05032361 C34.98412765 17.03986665 17.49206593 17.02207248 0 17 C0 11.39 0 5.78 0 0 Z M6 9 C6 9.66 6 10.32 6 11 C49.89 11 93.78 11 139 11 C139 10.34 139 9.68 139 9 C95.11 9 51.22 9 6 9 Z " fill="#030303" transform="translate(376,288)"/>
<path d="M0 0 C0.33 0 0.66 0 1 0 C1.49628611 6.32764787 1.49628611 6.32764787 -0.76171875 9.38671875 C-1.86966797 10.68029297 -1.86966797 10.68029297 -3 12 C-5.05192995 14.81204988 -7.07542243 17.64310628 -9.09765625 20.4765625 C-12.27067903 24.68554139 -12.27067903 24.68554139 -14 26 C-16.26171875 26.29296875 -16.26171875 26.29296875 -18.6875 26.1875 C-19.49574219 26.16042969 -20.30398438 26.13335937 -21.13671875 26.10546875 C-21.75160156 26.07066406 -22.36648438 26.03585937 -23 26 C-21.1875 23 -21.1875 23 -19 20 C-18.01 20 -17.02 20 -16 20 C-15.72671875 19.40977051 -15.4534375 18.81954102 -15.171875 18.21142578 C-14.03598069 16.06789857 -12.83470284 14.44417521 -11.25 12.6171875 C-10.7240625 12.00746094 -10.198125 11.39773438 -9.65625 10.76953125 C-9.1096875 10.14433594 -8.563125 9.51914062 -8 8.875 C-7.4534375 8.24207031 -6.906875 7.60914063 -6.34375 6.95703125 C-4.27933167 4.57384244 -2.23028116 2.23028116 0 0 Z " fill="#EAE9E9" transform="translate(290,262)"/>
<path d="M0 0 C0.66 0 1.32 0 2 0 C3.28317892 3.84953676 3.06643637 6.94738135 3 11 C2.34 10.67 1.68 10.34 1 10 C0.5859375 7.71484375 0.5859375 7.71484375 0.375 4.9375 C0.30023437 4.01839844 0.22546875 3.09929687 0.1484375 2.15234375 C0.09945312 1.44207031 0.05046875 0.73179687 0 0 Z " fill="#E6E5E5" transform="translate(540,238)"/>
</svg>
